HIERARCHY
ROOT Hips
{
  OFFSET 0.000000 0.000000 0.000000
  CHANNELS 6 Xposition Yposition Zposition Xrotation Yrotation Zrotation
  JOINT Spine
  {
    OFFSET 0.211591 24.227834 -3.764787
    CHANNELS 3 Xrotation Yrotation Zrotation
    JOINT Chest
    {
      OFFSET 0.211591 24.227834 -3.764787
      CHANNELS 3 Xrotation Yrotation Zrotation
      JOINT Neck
      {
        OFFSET -1.100772 8.441563 -3.430650
        CHANNELS 3 Xrotation Yrotation Zrotation
        JOINT Head
        {
          OFFSET -1.192129 7.757112 -7.601908
          CHANNELS 3 Xrotation Yrotation Zrotation
          End Site
          {
            OFFSET -0.357639 2.327134 -2.280572
          }
        }
      }
      JOINT LeftShoulder
      {
        OFFSET 17.192089 0.613400 -1.554494
        CHANNELS 3 Xrotation Yrotation Zrotation
        JOINT LeftArm
        {
          OFFSET 6.822346 -20.001605 -11.416031
          CHANNELS 3 Xrotation Yrotation Zrotation
          JOINT LeftForeArm
          {
            OFFSET -10.811707 -3.287858 -20.004664
            CHANNELS 3 Xrotation Yrotation Zrotation
            JOINT LeftHand
            {
              OFFSET -2.972239 -0.032078 -2.791873
              CHANNELS 3 Xrotation Yrotation Zrotation
              End Site
              {
                OFFSET -0.891672 -0.009623 -0.837562
              }
            }
          }
        }
      }
      JOINT RightShoulder
      {
        OFFSET -17.192089 -0.613400 1.554494
        CHANNELS 3 Xrotation Yrotation Zrotation
        JOINT RightArm
        {
          OFFSET -7.078612 -20.128798 -9.457155
          CHANNELS 3 Xrotation Yrotation Zrotation
          JOINT RightForeArm
          {
            OFFSET 6.068787 -1.370308 -22.325569
            CHANNELS 3 Xrotation Yrotation Zrotation
            JOINT RightHand
            {
              OFFSET 2.627653 0.279547 -3.282648
              CHANNELS 3 Xrotation Yrotation Zrotation
              End Site
              {
                OFFSET 0.788296 0.083864 -0.984794
              }
            }
          }
        }
      }
    }
  }
  JOINT LeftUpLeg
  {
    OFFSET 11.367086 0.027478 -2.758015
    CHANNELS 3 Xrotation Yrotation Zrotation
    JOINT LeftLeg
    {
      OFFSET 2.451199 -39.057141 -4.768226
      CHANNELS 3 Xrotation Yrotation Zrotation
      JOINT LeftFoot
      {
        OFFSET 10.058204 -39.973237 0.774249
        CHANNELS 3 Xrotation Yrotation Zrotation
        End Site
        {
          OFFSET 3.017461 -11.991971 0.232275
        }
      }
    }
  }
  JOINT RightUpLeg
  {
    OFFSET -11.367086 -0.027478 2.758015
    CHANNELS 3 Xrotation Yrotation Zrotation
    JOINT RightLeg
    {
      OFFSET -4.668361 -37.080477 -5.635053
      CHANNELS 3 Xrotation Yrotation Zrotation
      JOINT RightFoot
      {
        OFFSET -2.542494 -41.040053 5.594103
        CHANNELS 3 Xrotation Yrotation Zrotation
        End Site
        {
          OFFSET -0.762748 -12.312016 1.678231
        }
      }
    }
  }
}
MOTION
Frames: 17
Frame Time: 0.083333
6.360846 60.000000 18.258120 -2.444008 -0.518044 -2.995596 -2.444008 -0.518044 -2.995596 0.000000 0.000000 0.000000 -2.941290 -16.539593 -15.414026 5.000000 0.000000 0.000000 27.492183 -17.076446 30.766261 24.391074 -6.332087 -2.499652 0.000000 0.000000 0.000000 0.000000 0.000000 0.000000 19.855172 -9.528988 2.325804 9.503021 -4.445086 0.462923 0.000000 0.000000 0.000000 0.000000 0.000000 0.000000 19.709504 -1.125452 7.928962 5.299737 1.083536 8.644277 0.000000 0.000000 0.000000 -14.063523 2.043140 -11.081048 -24.596463 2.376644 2.485532 0.000000 0.000000 0.000000
4.930019 60.000000 19.197261 -2.954556 -0.782488 -4.441157 -2.954556 -0.782488 -4.441157 0.000000 0.000000 0.000000 1.565003 -19.787074 -20.383830 5.000000 0.000000 0.000000 25.953268 -12.273298 22.808763 27.975285 -5.702110 -2.934605 0.000000 0.000000 0.000000 0.000000 0.000000 0.000000 20.316532 -14.205616 8.681896 6.161498 -5.478651 0.389895 0.000000 0.000000 0.000000 0.000000 0.000000 0.000000 22.757358 -1.180789 8.036295 6.241827 1.248048 8.906623 0.000000 0.000000 0.000000 -17.061448 2.101502 -10.226963 -30.366283 1.318674 -1.519244 0.000000 0.000000 0.000000
3.747599 60.000000 14.963378 -1.830934 -0.717199 -4.255290 -1.830934 -0.717199 -4.255290 0.000000 0.000000 0.000000 0.655131 -20.781401 -20.969242 5.000000 0.000000 0.000000 5.461069 -1.867217 5.649665 34.039037 -4.127469 -3.760059 0.000000 0.000000 0.000000 0.000000 0.000000 0.000000 12.385127 -12.433741 11.753806 8.218318 -5.308465 0.404683 0.000000 0.000000 0.000000 0.000000 0.000000 0.000000 19.842329 -1.017943 7.565041 3.366782 0.747660 10.292887 0.000000 0.000000 0.000000 -15.452546 2.068418 -10.630289 -32.356108 1.532386 -1.259370 0.000000 0.000000 0.000000
2.581564 60.000000 8.651485 -0.081919 -0.582312 -3.656926 -0.081919 -0.582312 -3.656926 0.000000 0.000000 0.000000 -0.462871 -12.458542 -12.441952 5.000000 0.000000 0.000000 1.874017 5.289769 -7.625477 24.569883 -4.344304 -2.630321 0.000000 0.000000 0.000000 0.000000 0.000000 0.000000 7.764084 -6.297241 5.342894 7.588979 -2.724409 0.433661 0.000000 0.000000 0.000000 0.000000 0.000000 0.000000 11.510360 -0.837974 6.731528 -0.717006 0.091606 10.909464 0.000000 0.000000 0.000000 -15.884320 2.106055 -14.598160 -28.881863 3.096267 3.017392 0.000000 0.000000 0.000000
1.711049 60.000000 3.909007 2.948123 -0.322663 -2.119991 2.948123 -0.322663 -2.119991 0.000000 0.000000 0.000000 -2.013173 0.189126 0.579649 5.000000 0.000000 0.000000 2.161892 5.500052 -7.810414 19.484395 -1.247157 -2.002327 0.000000 0.000000 0.000000 0.000000 0.000000 0.000000 1.898398 0.147144 -1.673741 9.871862 0.519648 0.561097 0.000000 0.000000 0.000000 0.000000 0.000000 0.000000 3.090696 -0.362450 3.710048 -0.564442 0.107301 11.091703 0.000000 0.000000 0.000000 -18.154194 2.072139 -15.411455 -23.309150 3.111361 4.630301 0.000000 0.000000 0.000000
2.164120 60.000000 3.211013 4.797937 0.083146 1.192624 4.797937 0.083146 1.192624 0.000000 0.000000 0.000000 -0.748926 8.766827 9.232294 5.000000 0.000000 0.000000 4.548146 4.278535 -4.486860 23.451911 0.145633 -2.460147 0.000000 0.000000 0.000000 0.000000 0.000000 0.000000 -2.763693 1.231644 -0.339415 12.401206 2.152166 0.740428 0.000000 0.000000 0.000000 0.000000 0.000000 0.000000 1.924010 0.307934 -1.524626 0.841081 0.375799 14.257383 0.000000 0.000000 0.000000 -20.356149 2.034651 -15.595522 -18.169964 2.909981 5.740831 0.000000 0.000000 0.000000
3.084404 60.000000 4.385714 5.424934 0.407265 4.263119 5.424934 0.407265 4.263119 0.000000 0.000000 0.000000 2.449150 13.801292 14.621705 5.000000 0.000000 0.000000 11.593012 3.084850 1.668155 27.555756 1.833409 -2.877138 0.000000 0.000000 0.000000 0.000000 0.000000 0.000000 -7.691342 0.783151 4.762380 10.947301 3.539440 0.687036 0.000000 0.000000 0.000000 0.000000 0.000000 0.000000 -1.091392 0.313254 -3.504233 1.205133 0.442929 18.567527 0.000000 0.000000 0.000000 -17.834315 2.086888 -14.194087 -16.711949 2.671301 5.506441 0.000000 0.000000 0.000000
2.495143 60.000000 4.770275 5.237523 0.481351 4.851784 5.237523 0.481351 4.851784 0.000000 0.000000 0.000000 3.548997 15.364695 16.460128 5.000000 0.000000 0.000000 17.420421 5.598867 1.209815 27.370475 3.637290 -2.846207 0.000000 0.000000 0.000000 0.000000 0.000000 0.000000 -9.019121 0.631275 6.349685 11.789141 3.622251 0.758100 0.000000 0.000000 0.000000 0.000000 0.000000 0.000000 -1.915991 0.294629 -3.986700 3.083607 0.593750 22.265369 0.000000 0.000000 0.000000 -22.238522 2.021148 -14.117184 -12.519880 2.031497 4.992463 0.000000 0.000000 0.000000
0.686243 60.000000 8.894072 2.913490 0.513329 4.282214 2.913490 0.513329 4.282214 0.000000 0.000000 0.000000 2.807819 11.225523 12.150186 5.000000 0.000000 0.000000 14.778910 5.011676 0.618126 23.967455 3.389489 -2.558499 0.000000 0.000000 0.000000 0.000000 0.000000 0.000000 -5.330276 -1.171827 7.148758 11.141425 3.184585 0.720880 0.000000 0.000000 0.000000 0.000000 0.000000 0.000000 -0.277959 -0.234399 1.066281 6.125992 0.797439 19.379910 0.000000 0.000000 0.000000 -28.215549 1.984657 -14.143881 -10.648179 1.595166 4.474219 0.000000 0.000000 0.000000
-0.307804 60.000000 16.485582 0.875549 0.268486 2.326839 0.875549 0.268486 2.326839 0.000000 0.000000 0.000000 -0.843172 0.179120 1.230563 5.000000 0.000000 0.000000 7.245546 2.762215 -0.755077 18.273323 1.485079 -2.038254 0.000000 0.000000 0.000000 0.000000 0.000000 0.000000 -1.936726 -0.489068 2.832305 5.969386 1.052490 0.509129 0.000000 0.000000 0.000000 0.000000 0.000000 0.000000 5.721591 -1.233538 8.216894 4.851692 0.884385 14.569008 0.000000 0.000000 0.000000 -18.687999 2.170355 -10.317154 -22.603102 1.373012 0.567670 0.000000 0.000000 0.000000
-1.647584 60.000000 26.723478 -2.450363 -0.298319 -1.844109 -2.450363 -0.298319 -1.844109 0.000000 0.000000 0.000000 -4.484051 -16.564120 -15.021702 5.000000 0.000000 0.000000 0.567274 4.888143 -7.777160 22.614162 -2.608585 -2.397241 0.000000 0.000000 0.000000 0.000000 0.000000 0.000000 3.839857 -0.775152 -3.626452 -2.873189 -4.171467 0.315312 0.000000 0.000000 0.000000 0.000000 0.000000 0.000000 17.702646 -2.162666 11.422905 6.565357 1.194665 11.174024 0.000000 0.000000 0.000000 -19.146174 2.281909 -5.268260 -31.070944 -1.139366 -7.021492 0.000000 0.000000 0.000000
-3.001787 60.000000 33.742923 -1.632841 -0.877560 -5.686265 -1.632841 -0.877560 -5.686265 0.000000 0.000000 0.000000 0.384307 -25.913472 -25.757211 5.000000 0.000000 0.000000 4.406610 7.814142 -9.721681 33.754839 -4.427340 -3.787363 0.000000 0.000000 0.000000 0.000000 0.000000 0.000000 14.340002 -18.329395 13.214539 -0.166217 -9.829547 0.529056 0.000000 0.000000 0.000000 0.000000 0.000000 0.000000 22.448324 -2.896918 13.268898 6.287684 1.258556 8.615844 0.000000 0.000000 0.000000 -19.745409 2.346475 -4.267639 -35.263228 -3.770066 -12.876953 0.000000 0.000000 0.000000
-1.961476 60.000000 33.870952 1.928685 -1.312972 -9.413005 1.928685 -1.312972 -9.413005 0.000000 0.000000 0.000000 2.536304 -25.050098 -26.158615 5.000000 0.000000 0.000000 6.753973 8.219203 -8.599838 39.286571 -5.280453 -4.541138 0.000000 0.000000 0.000000 0.000000 0.000000 0.000000 19.908199 -44.990775 43.881195 15.728143 -10.413236 0.106667 0.000000 0.000000 0.000000 0.000000 0.000000 0.000000 21.671517 -2.508605 12.145340 5.446172 1.149094 7.313167 0.000000 0.000000 0.000000 -18.669951 2.242954 -5.225080 -33.198427 -4.667367 -15.069598 0.000000 0.000000 0.000000
1.920813 60.000000 24.166027 2.636704 -1.294207 -9.633760 2.636704 -1.294207 -9.633760 0.000000 0.000000 0.000000 1.040629 -23.067461 -23.465736 5.000000 0.000000 0.000000 6.336537 8.018731 -8.557893 32.867651 -4.979783 -3.648845 0.000000 0.000000 0.000000 0.000000 0.000000 0.000000 22.514978 -35.357528 30.511469 19.973353 -5.885133 0.266748 0.000000 0.000000 0.000000 0.000000 0.000000 0.000000 19.306029 -1.654295 9.648821 0.667468 0.283231 7.701418 0.000000 0.000000 0.000000 -17.085729 2.138502 -6.529915 -26.154731 -2.948519 -11.743093 0.000000 0.000000 0.000000
5.283338 60.000000 12.406824 3.142433 -1.032692 -7.648505 3.142433 -1.032692 -7.648505 0.000000 0.000000 0.000000 -2.070657 -16.393690 -15.727858 5.000000 0.000000 0.000000 3.223648 4.807221 -5.940905 22.826183 -4.985753 -2.329546 0.000000 0.000000 0.000000 0.000000 0.000000 0.000000 17.639067 -17.907254 13.403673 14.353069 -1.394700 0.689449 0.000000 0.000000 0.000000 0.000000 0.000000 0.000000 16.133210 -0.893988 6.993842 -3.293033 -0.363368 9.365231 0.000000 0.000000 0.000000 -14.007924 1.960380 -7.727643 -21.022634 -0.438937 -3.875412 0.000000 0.000000 0.000000
8.395340 60.000000 4.233851 6.544765 -0.596681 -5.256472 6.544765 -0.596681 -5.256472 0.000000 0.000000 0.000000 -5.297663 -4.348130 -3.242863 5.000000 0.000000 0.000000 4.159525 2.411159 -1.523160 21.123007 -3.477267 -2.159640 0.000000 0.000000 0.000000 0.000000 0.000000 0.000000 12.159004 1.711645 -10.122803 10.875959 -0.426377 0.585343 0.000000 0.000000 0.000000 0.000000 0.000000 0.000000 11.273482 -0.245377 3.959044 -3.846893 -0.312310 13.958089 0.000000 0.000000 0.000000 -12.551458 1.868956 -5.511188 -11.777582 1.511897 3.027406 0.000000 0.000000 0.000000
11.092587 60.000000 2.534222 8.678978 -0.240428 -2.197606 8.678978 -0.240428 -2.197606 0.000000 0.000000 0.000000 -5.978768 6.611474 7.364791 5.000000 0.000000 0.000000 4.169709 3.029118 -2.464282 17.515669 -1.431516 -1.851192 0.000000 0.000000 0.000000 0.000000 0.000000 0.000000 -0.150003 2.944185 -5.756023 12.497626 1.094809 0.678918 0.000000 0.000000 0.000000 0.000000 0.000000 0.000000 5.781707 0.122697 1.370807 -0.331050 0.327314 20.423580 0.000000 0.000000 0.000000 -16.263414 2.111946 1.703311 -10.587519 0.113253 -2.281681 0.000000 0.000000 0.000000
